<svg width="28" height="28" viewBox="0 0 28 28" fill="none" xmlns="http://www.w3.org/2000/svg">
<path fill-rule="evenodd" clip-rule="evenodd" d="M10.3613 2.51609C8.08073 3.23857 6.06691 4.6237 4.57649 6.49496C3.08607 8.36622 2.18655 10.6389 1.99256 13.0233H7.82698C7.86995 11.5959 8.00279 10.1894 8.22419 8.85581C8.49377 7.2227 8.89488 5.71721 9.4093 4.42791C9.66972 3.76385 9.98829 3.12409 10.3613 2.51609ZM14 0C12.1615 -2.73959e-08 10.341 0.362121 8.64243 1.06569C6.94387 1.76925 5.40053 2.80048 4.1005 4.1005C2.80048 5.40053 1.76925 6.94387 1.06569 8.64243C0.36212 10.341 0 12.1615 0 14C0 15.8385 0.36212 17.659 1.06569 19.3576C1.76925 21.0561 2.80048 22.5995 4.1005 23.8995C5.40053 25.1995 6.94387 26.2307 8.64243 26.9343C10.341 27.6379 12.1615 28 14 28C17.713 28 21.274 26.525 23.8995 23.8995C26.525 21.274 28 17.713 28 14C28 10.287 26.525 6.72601 23.8995 4.1005C21.274 1.475 17.713 5.53285e-08 14 0ZM14 1.95349C13.6601 1.95349 13.2199 2.11758 12.7094 2.64633C12.1937 3.18028 11.6793 4.01507 11.2234 5.1533C10.7715 6.28502 10.403 7.64986 10.1503 9.17619C9.94847 10.4004 9.82474 11.6988 9.78307 13.0233H18.2169C18.1793 11.7342 18.0566 10.4491 17.8497 9.17619C17.597 7.64986 17.2285 6.28502 16.7766 5.1533C16.3207 4.01507 15.8063 3.18028 15.2919 2.64633C14.7801 2.11758 14.3412 1.95349 14 1.95349ZM20.173 13.0233C20.1339 11.6268 20.0012 10.2345 19.7758 8.85581C19.5062 7.2227 19.1051 5.71721 18.5907 4.42791C18.3299 3.7638 18.0109 3.12404 17.6374 2.51609C19.4788 3.09853 21.153 4.11564 22.5185 5.48149C24.5387 7.50223 25.7748 10.1753 26.0061 13.0233H20.173ZM18.2169 14.9767H9.78307C9.82344 16.3012 9.94847 17.5996 10.1503 18.8238C10.403 20.3501 10.7715 21.715 11.2234 22.8467C11.6793 23.9849 12.1937 24.8197 12.7081 25.3537C13.2199 25.8824 13.6588 26.0465 14 26.0465C14.3399 26.0465 14.7801 25.8824 15.2906 25.3537C15.8063 24.8197 16.3207 23.9849 16.7766 22.8467C17.2285 21.715 17.597 20.3501 17.8497 18.8238C18.0515 17.5996 18.1753 16.3012 18.2169 14.9767ZM17.6387 25.4839C17.9903 24.9187 18.3094 24.274 18.5894 23.5721C19.1051 22.2828 19.5062 20.7773 19.7758 19.1442C20.0008 17.7654 20.133 16.3732 20.1717 14.9767H26.0061C25.8121 17.3611 24.9126 19.6338 23.4222 21.505C21.9318 23.3763 19.9193 24.7614 17.6387 25.4839ZM10.36 25.4839C9.98744 24.8759 9.6693 24.2361 9.4093 23.5721C8.89358 22.2828 8.49247 20.7773 8.22288 19.1442C7.99793 17.7654 7.86567 16.3732 7.82698 14.9767H1.99256C2.18645 17.361 3.08578 19.6335 4.57596 21.5047C6.06613 23.376 8.07967 24.7612 10.36 25.4839Z" fill="#424342"/>
</svg>
