<svg width="30" height="30" viewBox="0 0 30 30" fill="none" xmlns="http://www.w3.org/2000/svg">
<g id="icon/Sns">
<g id="Group 1597881670">
<path id="Vector" d="M19.75 4H9.25C6.3505 4 4 6.3505 4 9.25V19.75C4 22.6495 6.3505 25 9.25 25H19.75C22.6495 25 25 22.6495 25 19.75V9.25C25 6.3505 22.6495 4 19.75 4Z" stroke="black" stroke-width="2" stroke-linecap="round" stroke-linejoin="round"/>
<path id="Vector_2" d="M18.9513 13.8399C19.0902 14.7762 18.9302 15.7324 18.4943 16.5726C18.0584 17.4127 17.3686 18.094 16.5232 18.5196C15.6777 18.9451 14.7196 19.0932 13.7851 18.9428C12.8506 18.7925 11.9873 18.3513 11.318 17.682C10.6487 17.0127 10.2075 16.1494 10.0572 15.2149C9.90678 14.2804 10.0549 13.3223 10.4804 12.4768C10.906 11.6314 11.5873 10.9416 12.4274 10.5057C13.2676 10.0698 14.2238 9.90984 15.1601 10.0487C16.1151 10.1903 16.9993 10.6353 17.682 11.318C18.3647 12.0007 18.8097 12.8849 18.9513 13.8399Z" stroke="black" stroke-width="2" stroke-linecap="round" stroke-linejoin="round"/>
</g>
</g>
</svg>
