<svg width="30" height="30" viewBox="0 0 30 30" fill="none" xmlns="http://www.w3.org/2000/svg">
<g id="icon/Sns">
<path id="Vector" d="M28 14.666C28 14.6 28 14.5249 27.9971 14.4379C27.9942 14.1948 27.9884 13.9217 27.9826 13.6307C27.9594 12.7934 27.9187 11.9591 27.8549 11.1729C27.7679 10.0896 27.6402 9.18629 27.4661 8.50808C27.2823 7.80031 26.9222 7.15481 26.4216 6.63609C25.9211 6.11738 25.2976 5.74362 24.6136 5.55217C23.7924 5.3241 22.1848 5.18306 19.9214 5.09603C18.8449 5.05402 17.6929 5.02701 16.5408 5.012C16.1375 5.006 15.7632 5.003 15.4266 5H14.5734C14.2368 5.003 13.8625 5.006 13.4592 5.012C12.3071 5.02701 11.1551 5.05402 10.0786 5.09603C7.81518 5.18606 6.20469 5.3271 5.38638 5.55217C4.70215 5.74315 4.07846 6.11675 3.57783 6.63554C3.0772 7.15433 2.71721 7.80008 2.53393 8.50808C2.35692 9.18629 2.23214 10.0896 2.14509 11.1729C2.08125 11.9591 2.04062 12.7934 2.01741 13.6307C2.00871 13.9217 2.0058 14.1948 2.0029 14.4379C2.0029 14.5249 2 14.6 2 14.666V14.834C2 14.9 2 14.9751 2.0029 15.0621C2.0058 15.3052 2.01161 15.5783 2.01741 15.8693C2.04062 16.7066 2.08125 17.5409 2.14509 18.3271C2.23214 19.4104 2.35982 20.3137 2.53393 20.9919C2.90536 22.4294 3.99643 23.5637 5.38638 23.9478C6.20469 24.1759 7.81518 24.3169 10.0786 24.404C11.1551 24.446 12.3071 24.473 13.4592 24.488C13.8625 24.494 14.2368 24.497 14.5734 24.5H15.4266C15.7632 24.497 16.1375 24.494 16.5408 24.488C17.6929 24.473 18.8449 24.446 19.9214 24.404C22.1848 24.3139 23.7953 24.1729 24.6136 23.9478C26.0036 23.5637 27.0946 22.4324 27.4661 20.9919C27.6431 20.3137 27.7679 19.4104 27.8549 18.3271C27.9187 17.5409 27.9594 16.7066 27.9826 15.8693C27.9913 15.5783 27.9942 15.3052 27.9971 15.0621C27.9971 14.9751 28 14.9 28 14.834V14.666ZM25.9107 14.822C25.9107 14.885 25.9107 14.9541 25.9078 15.0351C25.9049 15.2692 25.8991 15.5272 25.8933 15.8063C25.873 16.6046 25.8324 17.4028 25.7714 18.144C25.6931 19.1103 25.5828 19.9026 25.4464 20.4337C25.2665 21.127 24.7384 21.6761 24.071 21.8592C23.4616 22.0272 21.9266 22.1623 19.8402 22.2433C18.7839 22.2853 17.6464 22.3123 16.5118 22.3273C16.1143 22.3333 15.7458 22.3363 15.415 22.3363H14.585L13.4882 22.3273C12.3536 22.3123 11.219 22.2853 10.1598 22.2433C8.07344 22.1593 6.53549 22.0272 5.92902 21.8592C5.26161 21.6731 4.73348 21.127 4.55357 20.4337C4.41719 19.9026 4.30692 19.1103 4.22857 18.144C4.16763 17.4028 4.12991 16.6046 4.1067 15.8063C4.09799 15.5272 4.09509 15.2662 4.09219 15.0351C4.09219 14.9541 4.08929 14.882 4.08929 14.822V14.678C4.08929 14.615 4.08929 14.5459 4.09219 14.4649C4.09509 14.2308 4.10089 13.9728 4.1067 13.6937C4.12701 12.8954 4.16763 12.0972 4.22857 11.356C4.30692 10.3897 4.41719 9.59741 4.55357 9.06625C4.73348 8.37304 5.26161 7.82387 5.92902 7.64081C6.53839 7.47276 8.07344 7.33772 10.1598 7.25669C11.2161 7.21468 12.3536 7.18767 13.4882 7.17267C13.8857 7.16667 14.2542 7.16367 14.585 7.16367H15.415L16.5118 7.17267C17.6464 7.18767 18.781 7.21468 19.8402 7.25669C21.9266 7.34072 23.4645 7.47276 24.071 7.64081C24.7384 7.82687 25.2665 8.37304 25.4464 9.06625C25.5828 9.59741 25.6931 10.3897 25.7714 11.356C25.8324 12.0972 25.8701 12.8954 25.8933 13.6937C25.902 13.9728 25.9049 14.2338 25.9078 14.4649C25.9078 14.5459 25.9107 14.618 25.9107 14.678V14.822ZM12.4174 18.7712L19.1496 14.72L12.4174 10.7288V18.7712Z" fill="black"/>
</g>
</svg>
