<svg width="200" height="43" viewBox="0 0 200 43" fill="none" xmlns="http://www.w3.org/2000/svg">
<g clip-path="url(#clip0_17_186)">
<path d="M72.1277 35.7494H78.4564C78.5772 35.7494 78.6799 35.6527 78.6799 35.5319V0.217542C78.6799 0.0966854 78.5832 0 78.4564 0H72.1277C72.007 0 71.9043 0.0966854 71.9043 0.217542V35.5258C71.9043 35.6467 72.0009 35.7434 72.1277 35.7434" fill="#FF5624"/>
<path d="M161.931 11.2942V8.67158C161.931 8.55073 161.834 8.448 161.707 8.448H155.475C155.355 8.448 155.252 8.54469 155.252 8.67158V35.526C155.252 35.6468 155.349 35.7435 155.475 35.7435H161.81C161.931 35.7435 162.034 35.6468 162.034 35.526V22.6124C162.034 17.3008 164.884 14.8776 168.405 14.8776C169.081 14.8776 169.763 14.9803 170.349 15.1495C170.488 15.1918 170.627 15.083 170.627 14.938V8.93747C170.627 8.83474 170.56 8.75014 170.464 8.72597C169.679 8.52656 168.676 8.42383 167.831 8.42383C165.609 8.42383 163.489 9.21544 161.931 11.3002" fill="#FF5624"/>
<path d="M172.173 8.7734L183.031 29.9173L176.539 42.4985C176.466 42.6435 176.569 42.8188 176.732 42.8188H184.238C184.323 42.8188 184.395 42.7704 184.432 42.6979L191.044 29.8387C191.074 29.7783 191.074 29.6997 191.044 29.6393L180.216 8.57398C180.18 8.50147 180.102 8.45312 180.017 8.45312H172.36C172.197 8.45312 172.088 8.62837 172.167 8.7734" fill="#FF5624"/>
<path d="M188.658 8.67653V19.5838C188.658 19.7047 188.761 19.8074 188.882 19.8074C194.969 19.6866 199.879 14.7738 199.999 8.68257C199.999 8.56171 199.903 8.45898 199.776 8.45898H188.876C188.755 8.45898 188.652 8.55567 188.652 8.68257" fill="#FF5624"/>
<path d="M11.1235 8.45312H0.223437C0.0966213 8.45312 0 8.55585 0 8.67671C0.120777 14.7679 5.03035 19.6807 11.1175 19.8016C11.2443 19.8016 11.3409 19.7049 11.3409 19.578V8.67671C11.3409 8.55585 11.2443 8.45312 11.1175 8.45312" fill="#FF5624"/>
<path d="M40.3868 8.45312H33.0677C32.9832 8.45312 32.9107 8.50147 32.8684 8.57398L26.4311 21.2639L20.0359 8.65858C19.9514 8.49542 19.7219 8.49542 19.6434 8.65858L9.40155 28.8598C9.37136 28.9202 9.37136 28.9927 9.40155 29.0532L12.9343 36.0206C13.0188 36.1837 13.2483 36.1837 13.3268 36.0206L19.8487 23.1674L26.3707 36.0326C26.4492 36.1898 26.6726 36.1898 26.7511 36.0326L40.58 8.76735C40.6525 8.62232 40.5498 8.45312 40.3868 8.45312Z" fill="#FF5624"/>
<path d="M116.464 1.5654L103.909 14.1285C103.77 14.2674 103.867 14.5031 104.066 14.5031H109.942V35.5261C109.942 35.647 110.039 35.7497 110.165 35.7497H116.627C116.748 35.7497 116.85 35.653 116.85 35.5261V14.5092H122.617C122.738 14.5092 122.841 14.4125 122.841 14.2856V8.67782C122.841 8.55696 122.744 8.45423 122.617 8.45423H116.85V1.72251C116.85 1.5231 116.609 1.42641 116.476 1.5654" fill="#FF5624"/>
<path d="M94.7615 18.9858C92.3279 18.164 90.4015 17.5597 90.335 16.1276C90.335 14.4598 92.2192 13.6258 93.9825 13.8555C95.6371 14.073 97.1529 14.8646 98.2459 16.0067C98.3305 16.0974 98.4754 16.1034 98.5599 16.0128L102.654 11.9157C102.739 11.8311 102.745 11.6982 102.666 11.6136C100.909 9.63757 97.6541 7.68573 93.131 7.67969C87.9739 7.67969 83.0884 10.9428 83.3481 16.2424C83.7769 25.1072 96.4161 23.4092 96.8932 27.8144C96.857 29.4641 95.2265 30.2859 93.4692 30.1832C91.259 30.0503 88.4449 28.5698 86.911 27.0712C86.8204 26.9866 86.6876 26.9866 86.603 27.0712L82.4725 31.2045C82.394 31.283 82.3819 31.416 82.4544 31.5006C87.9376 38.2564 103.506 38.6855 103.886 27.8567C103.886 22.2792 98.7049 20.3213 94.7675 18.9858" fill="#FF5624"/>
<path d="M137.77 29.3676C133.712 29.3676 130.427 26.0802 130.427 22.0195C130.427 17.9587 133.712 14.6714 137.77 14.6714C141.828 14.6714 145.113 17.9587 145.113 22.0195C145.113 26.0802 141.828 29.3676 137.77 29.3676ZM137.77 7.74023C129.889 7.74023 123.5 14.1336 123.5 22.0134C123.5 29.8933 129.889 36.2926 137.77 36.2926C145.65 36.2926 152.033 29.8993 152.033 22.0134C152.033 14.1275 145.644 7.74023 137.77 7.74023Z" fill="#FF5624"/>
<path d="M60.9075 18.7078C59.8387 16.0429 57.0608 14.218 54.1078 14.218C51.1548 14.218 48.2079 16.0006 47.1934 18.7078H60.9136H60.9075ZM53.8421 36.2985C50.7382 36.2864 47.5134 35.1262 44.959 32.9931C42.2717 30.7512 40.5144 27.6149 40.0011 24.1584C39.8924 23.4454 39.8381 22.7263 39.832 22.0253C39.832 20.9618 39.9468 19.8862 40.1944 18.8226C41.6799 12.4051 47.4953 7.74609 54.0233 7.74609C54.0233 7.74609 54.2165 7.74609 54.2769 7.74609C60.829 7.74609 66.5418 12.4051 67.8643 18.8287C68.2326 20.6113 68.2508 22.4604 67.9609 24.1101C67.9428 24.2128 67.8522 24.2853 67.7495 24.2853H46.8854C47.5617 27.3853 50.7925 29.3795 54.138 29.3795C57.1152 29.3795 59.0536 28.1528 61.0283 26.6783C61.1129 26.6179 61.2336 26.6239 61.3061 26.6964L65.5273 30.9083C65.6118 30.9929 65.6118 31.1258 65.5273 31.2104C63.1238 33.7122 59.1986 36.3348 53.8361 36.3046" fill="#FF5624"/>
</g>
<defs>
<clipPath id="clip0_17_186">
<rect width="200" height="42.8256" fill="white"/>
</clipPath>
</defs>
</svg>
