<svg width="216" height="32" viewBox="0 0 216 32" fill="none" xmlns="http://www.w3.org/2000/svg">
<g id="Group 1000006939">
<path id="Vector" d="M95.6825 7.46203C94.3795 0.0945999 71.9148 -2.21319 45.5069 2.32838C34.4212 4.23247 24.4066 7.04488 16.6091 10.2004C17.8098 10.2273 18.6966 10.4965 19.2424 11.028C19.6585 11.4452 19.87 12.0171 19.87 12.7303V13.4569H17.2845V12.811C17.2845 12.2795 16.957 11.943 16.3771 11.943C15.886 11.943 15.5926 12.1584 15.4903 12.589C15.4698 12.7101 15.463 12.9119 15.5039 13.1003C15.7836 14.2172 19.6244 14.9102 20.0474 16.9758C20.1019 17.2382 20.1702 17.8034 20.061 18.6175C19.8222 20.2794 18.3419 20.9253 16.4522 20.9253C13.8189 20.9253 12.7547 19.694 12.7547 17.9985V17.1978H15.5312V18.1936C15.5312 18.7588 15.9474 19.0683 16.5136 19.0683C17.0798 19.0683 17.3595 18.853 17.4687 18.4224C17.5096 18.2205 17.5369 17.9245 17.4482 17.7024C16.9365 16.4308 13.3414 15.8387 12.8979 13.7799C12.7956 13.3223 12.7956 12.9254 12.8707 12.4275C12.9184 12.1584 12.9934 11.9296 13.1026 11.7143C4.44552 15.7041 -0.609555 20.091 0.0589977 23.8857C1.36882 31.2599 23.8267 33.5609 50.2277 29.0261C61.8319 27.0278 72.2695 24.0472 80.2103 20.7032C80.0943 20.71 79.9851 20.7167 79.8692 20.7167C78.0613 20.7167 76.4377 20.0506 76.2808 18.2272C76.2467 17.8976 76.2467 17.7563 76.2399 17.5679V13.3762C76.2399 13.2012 76.2604 12.885 76.2808 12.7168C76.4991 10.954 77.9044 10.2341 79.8624 10.2341C81.37 10.2341 83.2256 10.658 83.4371 12.7235C83.4643 12.9792 83.4643 13.2551 83.4643 13.3493V13.7462H80.8515V13.1541C80.8515 13.1541 80.8515 12.9186 80.8174 12.7774C80.7697 12.5688 80.5923 12.0776 79.8419 12.0776C79.0915 12.0776 78.9141 12.5688 78.8732 12.7774C78.8527 12.8917 78.8391 13.0599 78.8391 13.2416V17.7966C78.8391 17.9514 78.8391 18.0792 78.8595 18.1734C78.8732 18.2407 79.0028 18.8731 79.8624 18.8731C80.7219 18.8731 80.8447 18.2474 80.8584 18.1734C80.8788 18.0523 80.8857 17.9043 80.8788 17.7966V16.3837H79.8487V14.8631H83.4916V17.5679C83.4916 17.7495 83.4916 17.8841 83.4575 18.2272C83.4098 18.7049 83.2597 19.1086 83.0209 19.4518C91.4461 15.509 96.351 11.1895 95.6893 7.45531M27.2104 20.5283L25.887 11.647H25.8392L24.4816 20.5283H21.6846L23.5607 10.5032H28.1246L29.9938 20.5283H27.2104ZM40.6429 20.5283L40.5815 11.8219H40.5405L38.8965 20.5283H36.2768L34.6464 11.8219H34.5986L34.5372 20.5283H31.938L32.1632 10.5032H36.345L37.5593 17.9514H37.6207L38.8351 10.5032H43.0101L43.2284 20.5283H40.6497H40.6429ZM52.8678 18.5906C52.5881 20.535 50.6575 20.8714 49.2999 20.8714C47.035 20.8714 45.6366 19.916 45.6366 17.9783V17.1844H48.379V18.1734C48.379 18.7049 48.7678 19.0346 49.3545 19.0346C49.8798 19.0346 50.1936 18.826 50.3028 18.3954C50.3505 18.2003 50.3778 17.9043 50.2823 17.6822C49.7775 16.4375 46.2164 15.8252 45.7798 13.8068C45.6843 13.3425 45.6775 12.959 45.7593 12.4611C46.0595 10.631 47.8469 10.2475 49.2795 10.2475C50.5688 10.2475 51.5034 10.5234 52.0628 11.0751C52.479 11.4855 52.6905 12.0507 52.6905 12.7572V13.4838H50.1254V12.8446C50.1254 12.2996 49.7843 11.9834 49.2249 11.9834C48.7337 11.9834 48.4336 12.1987 48.338 12.6226C48.3244 12.7101 48.2971 12.9186 48.3517 13.1205C48.6314 14.2307 52.4381 14.9102 52.8542 16.9489C52.9019 17.2113 52.977 17.7764 52.861 18.5838M62.364 17.6755C62.364 17.8639 62.3504 18.234 62.3367 18.3349C62.1798 19.9833 60.9791 20.8243 58.7825 20.8243C56.5858 20.8243 55.3783 19.9833 55.2214 18.3349C55.2214 18.234 55.2009 17.8572 55.2009 17.6755V10.4965H57.8206V17.9043C57.8206 18.0658 57.8206 18.1936 57.8479 18.2743C57.882 18.4358 58.0457 18.9741 58.7825 18.9741C59.5192 18.9741 59.6898 18.4358 59.7307 18.2743C59.7444 18.1869 59.7444 18.059 59.7444 17.9043V10.4965H62.364V17.6755ZM73.668 20.4274H70.0183L67.5692 12.488H67.5282L67.6647 20.4274H65.1201V10.5032H68.9199L71.1848 18.133H71.2326L71.103 10.5032H73.6612V20.4274H73.668Z" fill="#6E7073"/>
<g id="Group">
<path id="Vector_2" d="M215.727 5.04688H213.264V25.6068H215.727V5.04688Z" fill="#6E7073"/>
<path id="Vector_3" d="M163.776 4.95703H161.312V17.1204H163.776V4.95703Z" fill="#6E7073"/>
<path id="Vector_4" d="M201.533 5.66406V7.80772H207.575V12.0471H201.533V21.5052H211.236V19.3821H203.969V14.177H210.004V5.66406H201.533Z" fill="#6E7073"/>
<g id="Group_2">
<path id="Vector_5" d="M130.489 9.2238H128.25V4.95703H125.604V15.7712H128.25V11.4359H130.489V9.2238Z" fill="#6E7073"/>
<path id="Vector_6" d="M115.84 16.6562V25.5048H128.251V16.6562H115.84ZM125.706 23.3475H118.371V18.8205H125.706V23.3475Z" fill="#6E7073"/>
<path id="Vector_7" d="M135.703 10.7073C136.485 13.2139 139.642 15.3096 139.642 15.3096L140.99 13.4262C136.574 11.2004 136.914 5.35156 136.914 5.35156H134.471C134.471 5.35156 134.818 11.2072 130.402 13.4262L131.756 15.3096C131.756 15.3096 134.914 13.2139 135.696 10.7073H135.703Z" fill="#6E7073"/>
<path id="Vector_8" d="M118.153 10.7102C118.935 13.2169 122.385 15.5043 122.385 15.5043L123.739 13.6209C119.037 11.1965 119.377 5.34766 119.377 5.34766H116.935C116.935 5.34766 117.282 11.2033 112.566 13.6209L113.92 15.5043C113.92 15.5043 117.37 13.2169 118.153 10.7102Z" fill="#6E7073"/>
<path id="Vector_9" d="M143.519 15.7712H146.119V4.95703H143.479V9.2238H140.158V11.4359H143.519V15.7712Z" fill="#6E7073"/>
<path id="Vector_10" d="M139.62 16.0508C135.817 16.0508 132.748 18.2903 132.748 21.0572C132.748 23.8241 135.824 26.0636 139.62 26.0636C143.417 26.0636 146.499 23.8241 146.499 21.0572C146.499 18.2903 143.424 16.0508 139.62 16.0508ZM139.62 23.8515C137.259 23.8515 135.347 22.5982 135.347 21.0572C135.347 19.5162 137.266 18.2629 139.62 18.2629C141.974 18.2629 143.9 19.5162 143.9 21.0572C143.9 22.5982 141.981 23.8515 139.62 23.8515Z" fill="#6E7073"/>
</g>
<path id="Vector_11" d="M151.18 19.8299H161.277V20.6997H151.18V25.5897H163.829V23.5899H153.677V22.5352H163.774V17.8164H151.18V19.8299Z" fill="#6E7073"/>
<path id="Vector_12" d="M173.668 11.6834C174.967 14.8818 179.615 17.1624 179.615 17.1624L180.799 15.279C175.553 12.8683 175.063 8.49194 175.076 6.45786C175.076 6.20446 175.076 5.49219 175.076 5.49219H172.266C172.266 5.49219 172.266 6.20446 172.266 6.45786C172.273 8.49878 171.79 12.8683 166.537 15.279L167.728 17.1624C167.728 17.1624 172.389 14.8339 173.661 11.6834H173.668Z" fill="#6E7073"/>
<path id="Vector_13" d="M181.397 21.1992H165.863V23.336H181.397V21.1992Z" fill="#6E7073"/>
<path id="Vector_14" d="M153.071 6.74755C154.003 6.74755 154.758 7.39133 154.758 8.18578C154.758 8.98023 154.003 9.63086 153.071 9.63086C152.139 9.63086 151.383 8.97339 151.383 8.18578C151.383 7.39818 152.139 6.74755 153.071 6.74755ZM153.071 11.4321C155.153 11.4321 156.847 9.9733 156.847 8.17893C156.847 6.38456 155.16 4.92578 153.071 4.92578C150.982 4.92578 149.294 6.38456 149.294 8.17893C149.294 9.9733 150.989 11.4321 153.071 11.4321ZM157.718 11.8156H148.566V13.9182H152.03V17.1713H154.547V13.9182H157.718V14.514H155.439V16.3837H157.718V17.1371H160.072V5.14494H157.718V11.8156Z" fill="#6E7073"/>
<path id="Vector_15" d="M192.597 21.1725V16.9811H197.741V14.8717H187.467V12.276H197.51V10.1392H187.467V7.79691H197.741V5.6875H184.983V16.9811H190.073V21.1725H183.541V23.3299H199.123V21.1725H192.597Z" fill="#6E7073"/>
</g>
</g>
</svg>
